<svg width="130" height="130" viewBox="0 0 130 130" fill="none" xmlns="http://www.w3.org/2000/svg">
<rect width="130" height="130" rx="23" fill="url(#paint0_linear)"/>
<path d="M104.828 90.4017L83.5879 70.2137H79.6205L69.4414 79.8887V83.6597L90.6812 103.848C92.2442 105.333 94.7689 105.333 96.3318 103.848L104.828 95.7725C106.391 94.3251 106.391 91.8873 104.828 90.4017ZM93.4865 95.8106L76.4946 79.6602L79.34 76.9557L96.3318 93.1062L93.4865 95.8106Z" fill="white"/>
<path d="M87.4753 60.0054L93.1259 54.6346L101.622 62.7098C106.311 58.2532 106.311 51.016 101.622 46.5593L87.4352 33.0752L81.7846 38.446V27.7044L78.9793 25L64.7927 38.4841L67.6381 41.1885H78.9793L73.3287 46.5593L77.5767 50.597L65.995 61.6052L49.444 45.8737V40.4648L37.3413 28.9614L26 39.7411L38.1428 51.2826H43.7934L60.3444 67.014L56.938 70.2518H48.4421L27.2023 90.4398C25.6393 91.9254 25.6393 94.3251 27.2023 95.8106L35.6982 103.886C37.2611 105.371 39.7858 105.371 41.3488 103.886L62.5886 83.6978V75.6225L83.2273 56.0058L87.4753 60.0054ZM55.4953 79.6221L38.5034 95.7725L35.6581 93.0681L52.65 76.9176L55.4953 79.6221Z" fill="white"/>
<defs>
<linearGradient id="paint0_linear" x1="9" y1="27" x2="100" y2="88.5" gradientUnits="userSpaceOnUse">
<stop stop-color="#50AAA2"/>
<stop offset="1" stop-color="#53DFA6"/>
</linearGradient>
</defs>
</svg>
